<?xml version="1.0" encoding="utf-8"?>
<!-- Generator: Adobe Illustrator 26.3.1, SVG Export Plug-In . SVG Version: 6.00 Build 0)  -->
<svg version="1.1" id="レイヤー_1" xmlns="http://www.w3.org/2000/svg" xmlns:xlink="http://www.w3.org/1999/xlink" x="0px"
	 y="0px" viewBox="0 0 100 100" style="enable-background:new 0 0 100 100;" xml:space="preserve">
<style type="text/css">
	.st0{fill:#FFFFFF;}
</style>
<path class="st0" d="M8,10c-1.7,0-3,1.3-3,3s1.3,3,3,3h10c5,12.3,9.9,24.6,14.8,36.9l-4.5,10.9c-0.4,0.9-0.3,2,0.3,2.8
	C29,67.5,30,68,31,68h50c1.6,0,3-1.4,3-3s-1.5-3-3-3H35.5l2.6-6.2L86.2,52c1.3-0.1,2.4-1.1,2.7-2.3l6-26c0.4-1.8-1.1-3.7-2.9-3.7H26
	l-3.2-8.1C22.3,10.8,21.2,10,20,10L8,10z M28.4,26H47v9H32L28.4,26z M53,26h12v9H53V26z M71,26h17.2l-2.1,9H71L71,26z M34.4,41H47
	v8.1l-9,0.7L34.4,41z M53,41h12v6.7l-12,1V41z M71,41h13.8l-1.2,5.2l-12.6,1L71,41z M41,70c-5.5,0-10,4.5-10,10s4.5,10,10,10
	s10-4.5,10-10S46.5,70,41,70z M71,70c-5.5,0-10,4.5-10,10s4.5,10,10,10s10-4.5,10-10S76.5,70,71,70z M41,76c2.2,0,4,1.8,4,4
	s-1.8,4-4,4s-4-1.8-4-4S38.8,76,41,76z M71,76c2.2,0,4,1.8,4,4s-1.8,4-4,4s-4-1.8-4-4S68.8,76,71,76z"/>
</svg>
