<svg xmlns="http://www.w3.org/2000/svg" width="29" height="24">
    <path fill="#000" fill-rule="evenodd"
          d="M29 2.841a11.705 11.705 0 0 1-3.417.954A6.06 6.06 0 0 0 28.199.443a11.802 11.802 0 0 1-3.778 1.47A5.896 5.896 0 0 0 20.078 0c-3.285 0-5.95 2.712-5.95 6.058 0 .475.052.938.154 1.382-4.945-.253-9.328-2.666-12.263-6.331a6.12 6.12 0 0 0-.806 3.047 6.086 6.086 0 0 0 2.648 5.042 5.847 5.847 0 0 1-2.696-.758v.076c0 2.936 2.05 5.385 4.772 5.942a5.913 5.913 0 0 1-1.566.212c-.385 0-.757-.038-1.12-.109.757 2.407 2.954 4.159 5.557 4.208A11.8 11.8 0 0 1 0 21.278 16.62 16.62 0 0 0 9.12 24c10.944 0 16.929-9.233 16.929-17.239 0-.263-.007-.524-.018-.784A12.208 12.208 0 0 0 29 2.841z"/>
</svg>
